<?xml version="1.0" encoding="iso-8859-1"?>
<!-- Generator: Adobe Illustrator 19.0.0, SVG Export Plug-In . SVG Version: 6.00 Build 0)  -->
<svg version="1.1" id="Layer_1" xmlns="http://www.w3.org/2000/svg" xmlns:xlink="http://www.w3.org/1999/xlink" x="0px" y="0px"
	 viewBox="0 0 512 512" style="enable-background:new 0 0 512 512;" xml:space="preserve">
<g>
	<g>
		<path d="M437.019,74.981C388.667,26.628,324.38,0,256,0S123.333,26.628,74.981,74.981S0,187.62,0,256
			s26.628,132.667,74.981,181.019C123.333,485.372,187.62,512,256,512s132.667-26.628,181.019-74.981
			C485.372,388.667,512,324.38,512,256S485.372,123.333,437.019,74.981z M200.943,22.733c-8.244,7.234-16.115,16.132-23.503,26.671
			c-12.034,17.167-22.347,37.963-30.632,61.569c-22.809-5.727-43.824-13.251-62.131-22.374
			C115.923,56.627,156.007,33.337,200.943,22.733z M73.273,410.884c-33.842-39.865-54.897-90.897-56.778-146.714h107.493
			c0.687,43.309,6.824,84.794,17.767,121.306C116.48,391.898,93.277,400.454,73.273,410.884z M84.677,423.402
			c18.308-9.125,39.325-16.649,62.136-22.375c4.211,11.964,8.972,23.298,14.258,33.869c11.558,23.116,25.031,41.4,39.792,54.353
			C155.96,478.635,115.905,455.353,84.677,423.402z M247.83,495.054c-26.847-3.991-52.208-27.592-72.144-67.465
			c-4.728-9.457-9.009-19.575-12.837-30.236c26.735-5.538,55.507-8.695,84.981-9.19V495.054z M247.83,371.819
			c-31.23,0.511-61.761,3.936-90.134,9.949c-10.677-35.209-16.678-75.446-17.366-117.598H247.83V371.819z M247.83,247.83H140.332
			c0.242-14.523,1.122-29.008,2.641-43.166c0.48-4.486-2.766-8.513-7.252-8.995c-4.496-0.487-8.513,2.767-8.995,7.252
			c-1.58,14.734-2.492,29.804-2.737,44.909H16.495c1.88-55.817,22.935-106.849,56.778-146.714
			c20.006,10.432,43.213,18.989,68.491,25.41c-4.099,13.723-7.555,28.254-10.314,43.457c-0.805,4.439,2.141,8.692,6.581,9.498
			c4.443,0.807,8.692-2.141,9.498-6.581c2.719-14.982,6.133-29.249,10.18-42.666c28.368,6.012,58.895,9.436,90.121,9.947V247.83z
			 M247.83,123.839c-29.479-0.495-58.256-3.653-84.994-9.192c7.668-21.452,17.082-40.31,27.985-55.862
			c12.281-17.521,31.728-38.085,57.01-41.839V123.839z M264.169,49.197c110.356,4.307,198.81,95.412,198.81,206.803
			S374.525,458.496,264.17,462.803v-39.068c35.644-1.75,70.105-14.892,97.817-37.464c3.499-2.85,4.024-7.996,1.175-11.495
			c-2.848-3.498-7.995-4.024-11.495-1.175c-24.807,20.206-55.605,32.037-87.498,33.771v-39.104
			c58.27-4.201,104.397-52.947,104.397-112.268S322.44,147.932,264.17,143.731v-39.112c79.81,4.259,143.433,70.527,143.433,151.381
			c0,34.772-12.076,68.747-34.002,95.668c-2.849,3.499-2.324,8.645,1.175,11.495c1.516,1.234,3.34,1.836,5.154,1.836
			c2.373,0,4.726-1.027,6.34-3.011c24.294-29.826,37.672-67.466,37.672-105.987c0-89.865-70.949-163.466-159.773-167.742V49.197z
			 M313.191,256c0-28.761-21.344-52.621-49.021-56.599v-39.278c49.249,4.161,88.056,45.569,88.056,95.876
			c0,50.307-38.807,91.716-88.056,95.876v-39.276C291.848,308.621,313.191,284.761,313.191,256z M264.17,296.029v-80.057
			c18.624,3.795,32.681,20.3,32.681,40.029S282.794,292.233,264.17,296.029z M264.17,495.505v-16.351
			C383.537,474.838,479.319,376.402,479.319,256S383.537,37.162,264.17,32.846V16.495C392.549,20.819,495.66,126.587,495.66,256
			S392.549,491.181,264.17,495.505z"/>
	</g>
</g>
<g>
</g>
<g>
</g>
<g>
</g>
<g>
</g>
<g>
</g>
<g>
</g>
<g>
</g>
<g>
</g>
<g>
</g>
<g>
</g>
<g>
</g>
<g>
</g>
<g>
</g>
<g>
</g>
<g>
</g>
</svg>
