<?xml version="1.0" standalone="no"?>
<!DOCTYPE svg PUBLIC "-//W3C//DTD SVG 20010904//EN"
 "http://www.w3.org/TR/2001/REC-SVG-20010904/DTD/svg10.dtd">
<svg version="1.0" xmlns="http://www.w3.org/2000/svg"
 width="512.000000pt" height="512.000000pt" viewBox="0 0 512.000000 512.000000"
 preserveAspectRatio="xMidYMid meet">
<metadata>
Created by potrace 1.11, written by Peter Selinger 2001-2013
</metadata>
<g transform="translate(0.000000,512.000000) scale(0.100000,-0.100000)"
fill="#000000" stroke="none">
<path d="M2379 5116 c-2 -2 -35 -6 -74 -10 -187 -16 -414 -67 -616 -139 -696
-248 -1268 -813 -1527 -1512 -83 -224 -125 -406 -152 -665 -8 -82 -5 -463 5
-520 3 -19 13 -78 21 -130 137 -855 718 -1594 1524 -1937 154 -66 393 -138
528 -159 19 -3 43 -7 54 -9 11 -3 46 -7 77 -11 31 -3 78 -10 106 -14 50 -8
468 -5 515 4 14 2 45 7 70 10 25 4 56 9 70 11 14 3 40 7 58 10 138 23 370 93
527 160 655 280 1175 835 1410 1506 20 57 38 113 41 123 2 10 8 33 14 51 6 18
12 41 14 51 3 10 13 64 25 119 36 176 45 280 46 500 0 219 -10 337 -45 505 -6
30 -14 66 -16 80 -11 55 -67 238 -101 329 -266 712 -867 1285 -1599 1525 -44
15 -91 28 -104 31 -12 2 -37 9 -54 14 -40 13 -217 48 -281 56 -27 4 -61 9 -75
11 -28 6 -456 15 -461 10z m486 -181 c141 -18 134 -16 266 -49 439 -108 831
-334 1149 -663 447 -460 682 -1055 674 -1701 -1 -81 -5 -169 -8 -197 -4 -27
-9 -66 -12 -85 -37 -268 -130 -563 -249 -786 -51 -96 -67 -123 -78 -138 -4 -6
-33 -49 -64 -96 -86 -130 -156 -214 -282 -341 -180 -179 -314 -283 -511 -397
-206 -118 -401 -195 -635 -252 -143 -34 -201 -44 -345 -56 -41 -3 -87 -7 -102
-9 l-26 -2 0 82 0 83 91 7 c202 17 330 42 497 96 404 131 740 354 1030 684
107 122 240 330 325 508 45 94 124 311 140 382 32 145 50 255 61 370 5 54 4
331 -1 380 -58 542 -265 988 -632 1363 -104 106 -326 292 -349 292 -6 0 -19 9
-29 20 -10 11 -22 20 -27 20 -5 0 -30 14 -55 31 -59 41 -288 150 -383 182
-194 66 -357 102 -560 122 -14 2 -44 3 -67 4 l-42 1 1 78 c0 42 2 79 3 82 4 7
78 2 220 -15z m-387 -519 l0 -535 -97 4 c-141 6 -328 20 -386 30 -16 2 -52 7
-80 10 -27 3 -61 8 -75 11 -35 6 -55 10 -137 24 -40 7 -73 14 -73 16 0 1 20
51 44 111 198 492 498 817 798 862 3 1 6 -239 6 -533z m-534 412 c-170 -174
-337 -448 -438 -716 -19 -52 -36 -95 -38 -98 -4 -3 -171 43 -268 75 -80 27
-248 95 -304 123 l-48 24 79 75 c209 196 480 368 753 476 91 36 286 99 315
102 5 1 -18 -27 -51 -61z m856 -213 c25 -3 56 -7 70 -10 25 -5 60 -11 115 -20
65 -11 225 -60 320 -97 484 -188 875 -545 1108 -1013 99 -199 173 -443 201
-665 14 -108 15 -423 2 -490 -2 -14 -10 -59 -16 -100 -28 -171 -82 -352 -147
-490 -14 -30 -32 -70 -40 -89 -19 -44 -132 -229 -184 -300 -224 -309 -551
-561 -912 -705 -78 -31 -236 -81 -292 -92 -164 -33 -235 -43 -345 -47 l-35 -2
0 194 0 194 40 3 c119 9 253 35 370 71 173 54 343 139 495 249 104 75 125 122
74 169 -36 33 -72 31 -125 -6 -181 -126 -303 -192 -450 -243 -99 -34 -239 -64
-333 -72 l-75 -6 1 196 0 196 25 0 c13 0 59 7 101 15 301 61 560 233 724 480
51 77 114 195 122 230 1 6 12 39 23 75 64 200 62 444 -4 654 -110 349 -390
629 -740 739 -43 14 -98 28 -123 32 -25 3 -54 8 -65 10 -11 2 -30 4 -41 4 -22
1 -22 3 -22 197 l0 197 76 -7 c272 -24 571 -149 799 -332 26 -21 85 -77 130
-123 392 -400 527 -991 351 -1524 -53 -161 -114 -274 -247 -466 -39 -55 -40
-94 -5 -126 54 -50 94 -29 179 91 69 95 155 255 200 369 126 318 146 701 55
1040 -63 232 -189 476 -335 645 -47 55 -188 193 -225 220 -18 14 -45 34 -59
46 -138 113 -441 254 -626 290 -90 18 -138 26 -185 31 -66 7 -93 10 -102 12
-3 0 -6 89 -6 196 l0 194 57 -4 c31 -3 76 -7 101 -10z m-1798 -625 c8 0 18 -4
23 -9 11 -9 222 -80 323 -107 71 -19 71 -18 42 -119 -22 -77 -72 -305 -75
-345 -2 -35 21 -67 57 -79 25 -9 37 -8 62 7 26 15 33 28 44 77 23 102 94 390
98 396 2 4 25 2 51 -2 27 -5 57 -11 68 -13 67 -13 147 -26 195 -32 30 -4 66
-8 80 -10 14 -1 52 -6 85 -9 33 -3 78 -8 100 -10 22 -2 101 -7 175 -10 74 -4
137 -8 141 -11 4 -2 7 -244 7 -538 l0 -534 -536 1 -537 2 3 90 c3 94 6 142 17
287 7 84 7 87 -18 112 -56 56 -131 22 -141 -64 -10 -91 -22 -283 -25 -387 l-1
-42 -537 2 c-352 1 -538 5 -537 12 1 6 5 53 9 105 3 52 8 104 10 115 3 11 7
36 9 55 31 219 140 554 236 724 9 17 32 58 50 91 45 82 122 195 193 286 l60
76 127 -59 c71 -32 134 -58 142 -58z m1728 -485 c225 -36 447 -173 596 -367
51 -66 115 -182 139 -253 42 -121 54 -206 51 -345 -2 -74 -6 -144 -9 -155 -3
-11 -10 -40 -17 -65 -99 -382 -412 -658 -812 -714 l-36 -6 0 199 0 199 40 6
c59 10 154 52 213 96 149 110 233 277 233 463 0 181 -85 348 -233 457 -52 38
-161 90 -189 90 -8 0 -26 5 -40 11 l-25 12 1 192 0 193 32 -4 c17 -3 42 -7 56
-9z m15 -582 c46 -24 114 -82 146 -126 65 -89 92 -232 64 -338 -37 -138 -150
-252 -292 -293 l-21 -7 0 400 0 399 36 -10 c20 -6 51 -17 67 -25z m-1504 -486
c1 -86 17 -336 24 -378 2 -13 6 -51 9 -84 3 -33 8 -69 10 -80 2 -11 7 -45 11
-75 10 -83 52 -285 84 -412 16 -62 30 -119 32 -127 3 -9 -9 -18 -31 -24 -180
-50 -461 -154 -610 -226 l-39 -19 -59 77 c-129 168 -228 333 -305 512 -61 140
-117 308 -134 398 -2 14 -6 28 -9 33 -9 14 -43 235 -49 324 -8 106 -8 96 -6
110 1 9 140 12 536 12 l535 0 1 -41z m1237 -498 l0 -539 -57 -1 c-128 -2 -325
-16 -461 -33 -77 -10 -222 -33 -308 -50 -54 -10 -74 -11 -77 -2 -52 152 -119
482 -140 691 -4 33 -8 76 -11 95 -5 45 -15 215 -18 307 l-2 71 538 0 537 0 -1
-539z m-1 -1236 l2 -532 -22 5 c-65 12 -88 20 -153 51 -212 103 -400 319 -553
635 -46 94 -121 271 -121 284 0 2 41 9 100 19 19 3 61 10 92 16 32 5 74 12 95
14 21 2 56 7 78 10 95 12 337 30 420 30 l60 0 2 -532z m-972 310 c108 -279
257 -528 422 -703 44 -47 69 -80 58 -77 -11 4 -59 18 -107 32 -237 68 -505
199 -713 349 -38 27 -72 53 -75 56 -3 3 -27 23 -55 45 -27 21 -81 68 -118 104
l-68 65 53 27 c70 35 264 111 353 137 39 12 99 30 135 41 36 11 68 20 71 20 4
1 24 -43 44 -96z"/>
</g>
</svg>
